<svg width="38" height="37" viewBox="0 0 38 37" fill="none" xmlns="http://www.w3.org/2000/svg">
<g clip-path="url(#clip0_510_424)" filter="url(#filter0_d_510_424)">
<path d="M32.5587 17.0503C32.5587 16.6106 32.4513 16.1363 32.2057 15.6572C32.2657 15.458 32.3088 15.2569 32.3416 15.0553C32.4495 14.9911 32.5549 14.9123 32.6491 14.8078C33.2773 14.108 33.0523 12.7463 32.8624 11.9967C32.8428 11.922 32.8132 11.8502 32.7743 11.7834C32.832 11.5716 32.8624 11.3503 32.8624 11.1192C32.8629 5.50453 26.6445 0.9375 19.0001 0.9375C11.3557 0.9375 5.13726 5.50453 5.13726 11.1192C5.13726 11.3498 5.1682 11.5716 5.22539 11.7834C5.18687 11.8498 5.15739 11.9211 5.13773 11.9953C4.94789 12.7444 4.72289 14.1038 5.3482 14.8027C5.41007 15.1772 5.51414 15.5536 5.67257 15.9263C5.52379 16.2823 5.44562 16.6639 5.44242 17.0498C5.44242 17.408 5.47617 17.7553 5.53757 18.0947C5.30114 18.6474 5.17838 19.242 5.17664 19.8431C5.1771 24.0492 7.57523 29.0625 19.0001 29.0625C30.4249 29.0625 32.823 24.0492 32.823 19.8436C32.8213 19.2427 32.6987 18.6482 32.4626 18.0956C32.5245 17.7563 32.5587 17.4084 32.5587 17.0503M31.9254 11.1192C31.9254 13.4859 26.7312 15.0759 19.0001 15.0759C11.269 15.0759 6.07476 13.4855 6.07476 11.1192C6.07476 6.00516 11.8732 1.845 19.0001 1.845C26.127 1.845 31.9254 6.00516 31.9254 11.1192M19.0001 28.155C10.4496 28.155 6.11414 25.3589 6.11414 19.8436C6.11414 19.793 6.11507 19.7419 6.11742 19.6912C7.85929 23.1773 12.183 24.9422 19.0005 24.9422C25.8176 24.9422 30.1404 23.1778 31.8827 19.6927C31.8846 19.7428 31.8855 19.7934 31.8855 19.8436C31.8855 25.3594 27.5505 28.155 19.0001 28.155ZM31.8677 16.7841L31.8626 16.7742L31.8396 16.8591C30.7127 19.6444 27.1741 21.5723 20.2718 21.7809L17.9909 24.0173C17.9234 24.0159 17.8526 24.0159 17.7855 24.0141L15.2744 21.6192C9.98835 21.0708 7.15851 19.3031 6.16617 16.8797L6.13757 16.7747L6.12914 16.7925C6.11882 16.7658 6.1057 16.7405 6.09585 16.7137C6.83929 17.8781 8.12601 18.9731 10.143 19.8319C11.7255 20.5059 13.129 20.7684 14.3463 20.7337L12.4019 18.8794C11.7887 18.7217 11.1885 18.5171 10.6066 18.2672C9.91463 17.9764 9.25234 17.6194 8.62898 17.2012C8.78179 17.2556 8.94164 17.2927 9.11648 17.2927C9.48961 17.2927 9.85054 17.1656 10.1688 17.0531C10.2654 17.0194 10.4032 16.9706 10.5129 16.9397C10.5616 17.0255 10.616 17.1314 10.6573 17.213C10.8907 17.6705 11.2094 18.2958 11.8802 18.4889C12.0016 18.5231 12.1287 18.5409 12.2585 18.5409C12.7474 18.5409 13.1688 18.2967 13.5405 18.0816C13.6287 18.03 13.7459 17.9625 13.8419 17.9142C13.9043 17.9906 13.9746 18.0867 14.0285 18.1603C14.329 18.5681 14.7405 19.1269 15.4198 19.2155C15.4784 19.2234 15.536 19.2267 15.5941 19.2267C16.1744 19.2267 16.6334 18.8634 17.0023 18.5709C17.0801 18.5091 17.1818 18.428 17.2676 18.367C17.3402 18.4355 17.4241 18.5217 17.4888 18.5883C17.8591 18.9694 18.3204 19.4447 19.0005 19.4447C19.6807 19.4447 20.1415 18.9698 20.5123 18.5883C20.577 18.5217 20.6604 18.4355 20.7335 18.367C20.8198 18.428 20.921 18.5091 20.9988 18.5705C21.3673 18.863 21.8266 19.2267 22.407 19.2267C22.4646 19.2267 22.5232 19.223 22.5804 19.2159C22.7355 19.1954 22.8861 19.1493 23.0262 19.0795L21.9171 20.1675C23.1227 20.4483 24.5857 20.4609 26.3262 20.0808C29.7748 19.328 31.5326 17.6452 32.1504 15.8189C32.0865 16.1487 31.9919 16.4719 31.8677 16.7841M6.64382 15.2878L6.70664 15.2883C6.81445 15.2883 6.92695 15.2841 7.04039 15.2808C7.13414 15.277 7.22835 15.2733 7.3207 15.2733C7.36804 15.2733 7.40648 15.2747 7.43789 15.2761C7.46601 15.3703 7.49507 15.4908 7.5171 15.5827C7.60148 15.9309 7.71117 16.365 7.97226 16.7147C7.42054 16.2614 6.97945 15.7823 6.64382 15.2878M23.3327 18.8789C23.5934 18.6689 23.7959 18.3989 23.9726 18.1594C24.0274 18.0858 24.0982 17.9897 24.1601 17.9133C24.2557 17.962 24.3719 18.0291 24.4605 18.0806C24.8318 18.2962 25.2523 18.54 25.7416 18.54C25.871 18.54 25.9985 18.5222 26.1199 18.488C26.7907 18.2948 27.1099 17.6691 27.3429 17.2116C27.3846 17.13 27.4385 17.0245 27.4873 16.9392C27.5969 16.9697 27.7352 17.0189 27.8313 17.0527C28.1501 17.1647 28.5105 17.2922 28.8841 17.2922C28.9877 17.2922 29.0857 17.2777 29.1823 17.2584C28.2991 17.8252 27.1732 18.2911 25.7594 18.5995C24.9625 18.7769 24.1492 18.8705 23.3327 18.8789M30.1713 16.4906C30.3321 16.1911 30.4151 15.8611 30.4821 15.5845C30.5041 15.4931 30.5332 15.3722 30.5609 15.2784C30.5918 15.2766 30.6298 15.2756 30.6757 15.2756C30.7685 15.2756 30.8637 15.2794 30.9584 15.2822C31.0207 15.2845 31.0807 15.285 31.1421 15.2869C30.8764 15.7316 30.5496 16.1368 30.1713 16.4906M31.9727 14.2017C31.8373 14.3522 31.5837 14.3831 31.2954 14.3831C31.0966 14.3831 30.8805 14.3686 30.6766 14.3686C30.3996 14.3686 30.1423 14.3953 29.9716 14.52C29.538 14.8373 29.6468 16.058 29.1223 16.3336C29.0524 16.3697 28.9727 16.3852 28.8846 16.3852C28.4435 16.3852 27.8088 16.0022 27.3415 16.0017C27.2646 16.0002 27.1881 16.0132 27.116 16.0402C26.6069 16.2398 26.4284 17.4553 25.8682 17.6161C25.8272 17.6277 25.7847 17.6333 25.7421 17.633C25.249 17.633 24.5726 16.9477 24.0569 16.9477C24.0218 16.9477 23.9876 16.9509 23.9534 16.9575C23.4115 17.0672 23.036 18.2395 22.4627 18.315C22.4445 18.3169 22.4252 18.3183 22.407 18.3183C21.8759 18.3183 21.2435 17.3883 20.6941 17.3883L20.6646 17.3892C20.1077 17.4244 19.5762 18.5362 19.001 18.5362C18.4254 18.5362 17.8948 17.4244 17.3379 17.3892C17.3279 17.3887 17.3179 17.3884 17.3079 17.3883C16.7585 17.3883 16.1257 18.3183 15.5951 18.3183C15.5764 18.3184 15.5578 18.3173 15.5393 18.315C14.966 18.2395 14.5919 17.0672 14.0487 16.9575C14.0146 16.9506 13.9799 16.9473 13.9451 16.9477C13.4294 16.9477 12.7526 17.633 12.259 17.633C12.2164 17.6333 12.1739 17.6277 12.1329 17.6161C11.5723 17.4548 11.3937 16.2389 10.8841 16.0402C10.8121 16.0133 10.7356 16.0002 10.6587 16.0017C10.1918 16.0017 9.55804 16.3847 9.11695 16.3847C9.02882 16.3847 8.9482 16.3692 8.87789 16.3327C8.35382 16.0561 8.46117 14.8355 8.02898 14.5191C7.85695 14.393 7.59867 14.3667 7.32117 14.3667C7.11773 14.3667 6.90398 14.3813 6.70664 14.3813C6.41695 14.3813 6.16242 14.3508 6.02695 14.1989C5.8132 13.9608 5.82773 13.4072 5.88679 12.9455C7.88929 15.1505 13.5935 15.983 19.0005 15.983C24.408 15.983 30.1118 15.1505 32.1138 12.9455C32.1729 13.4081 32.187 13.9627 31.9727 14.2017" fill="white"/>
<path d="M11.0206 7.29844L10.3109 6.61781L9.60121 7.29844L10.3109 7.97859L11.0206 7.29844ZM13.8096 6.86062L14.5189 6.18L13.8096 5.49937L13.1 6.18L13.8096 6.86062ZM16.5045 9.28734L15.7953 8.60672L15.0856 9.28734L15.7953 9.9675L16.5045 9.28734ZM18.9575 6.84516L18.485 6.39141L18.0115 6.84516L18.485 7.29844L18.9575 6.84516ZM26.8034 8.60672L27.2768 9.06L27.7503 8.60672L27.2768 8.15344L26.8034 8.60672ZM30.6228 9.06L30.1498 8.60672L29.6764 9.06L30.1498 9.51375L30.6228 9.06ZM25.1576 5.72625L24.6851 5.2725L24.2117 5.72625L24.6851 6.18L25.1576 5.72625ZM10.8476 5.15953L10.3751 4.70578L9.90168 5.15953L10.3751 5.61328L10.8476 5.15953ZM8.32387 7.29844L7.8509 6.84516L7.37793 7.29844L7.8509 7.75219L8.32387 7.29844ZM10.3109 10.2937L10.7843 10.7475L11.2568 10.2937L10.7843 9.84L10.3109 10.2937ZM16.7407 3.345L16.2682 2.89125L15.7953 3.345L16.2682 3.79875L16.7407 3.345ZM21.2061 2.89125L20.7336 2.4375L20.2601 2.89125L20.7336 3.345L21.2061 2.89125ZM13.8092 3.79875L13.3367 3.345L12.8637 3.79875L13.3367 4.25203L13.8092 3.79875ZM27.2459 4.87547L26.7734 4.42219L26.3 4.87547L26.7734 5.32922L27.2459 4.87547ZM21.4432 11.2561L22.1525 10.5755L21.4432 9.89484L20.7331 10.5755L21.4432 11.2561ZM21.0411 7.08703L20.3318 6.40687L19.6221 7.08703L20.3318 7.76765L21.0411 7.08703ZM23.6553 4.47891L22.9461 3.79875L22.2359 4.47891L22.9461 5.15953L23.6553 4.47891ZM24.2815 7.39031L24.9907 8.07094L25.7004 7.39031L24.9907 6.70969L24.2815 7.39031ZM28.6962 6.40687L27.9865 5.72625L27.2768 6.40687L27.9865 7.08703L28.6962 6.40687ZM25.7004 11.0719L26.4101 10.3917L25.7004 9.71109L24.9907 10.3917L25.7004 11.0719ZM7.85043 9.21422L8.56059 9.89484L9.2698 9.21422L8.56059 8.53406L7.85043 9.21422Z" fill="white"/>
</g>
<defs>
<filter id="filter0_d_510_424" x="0" y="0" width="38" height="38" filterUnits="userSpaceOnUse" color-interpolation-filters="sRGB">
<feFlood flood-opacity="0" result="BackgroundImageFix"/>
<feColorMatrix in="SourceAlpha" type="matrix" values="0 0 0 0 0 0 0 0 0 0 0 0 0 0 0 0 0 0 127 0" result="hardAlpha"/>
<feOffset dy="4"/>
<feGaussianBlur stdDeviation="2"/>
<feComposite in2="hardAlpha" operator="out"/>
<feColorMatrix type="matrix" values="0 0 0 0 0 0 0 0 0 0 0 0 0 0 0 0 0 0 0.25 0"/>
<feBlend mode="normal" in2="BackgroundImageFix" result="effect1_dropShadow_510_424"/>
<feBlend mode="normal" in="SourceGraphic" in2="effect1_dropShadow_510_424" result="shape"/>
</filter>
<clipPath id="clip0_510_424">
<rect width="30" height="30" fill="white" transform="translate(4)"/>
</clipPath>
</defs>
</svg>
