<svg width="30" height="30" viewBox="0 0 30 30" fill="none" xmlns="http://www.w3.org/2000/svg">
<path d="M22.5 1.87494C23.3265 1.87579 24.1427 2.05877 24.8905 2.41088C25.6383 2.76299 26.2993 3.27556 26.8265 3.91215C27.3537 4.54873 27.7341 5.29367 27.9407 6.09397C28.1473 6.89428 28.175 7.73028 28.0218 8.5425C27.8686 9.35471 27.5383 10.1232 27.0544 10.7933C26.5705 11.4633 25.9448 12.0185 25.222 12.4193C24.4991 12.8201 23.6968 13.0567 22.8721 13.1122C22.0475 13.1678 21.2207 13.0409 20.4506 12.7406L14.0625 21.2512V26.25H16.875C17.1236 26.25 17.3621 26.3487 17.5379 26.5245C17.7137 26.7004 17.8125 26.9388 17.8125 27.1875C17.8125 27.4361 17.7137 27.6745 17.5379 27.8504C17.3621 28.0262 17.1236 28.125 16.875 28.125H9.375C9.12636 28.125 8.8879 28.0262 8.71209 27.8504C8.53627 27.6745 8.4375 27.4361 8.4375 27.1875C8.4375 26.9388 8.53627 26.7004 8.71209 26.5245C8.8879 26.3487 9.12636 26.25 9.375 26.25H12.1875V21.2512L2.25 8.01369C2.00658 7.68914 1.875 7.29439 1.875 6.88869V6.57557C1.875 6.32693 1.97377 6.08847 2.14959 5.91266C2.3254 5.73684 2.56386 5.63807 2.8125 5.63807H4.91625L2.99625 3.18182C2.84309 2.98589 2.77403 2.73714 2.80427 2.4903C2.83451 2.24345 2.96157 2.01873 3.1575 1.86557C3.35343 1.7124 3.60218 1.64335 3.84902 1.67359C4.09587 1.70383 4.32059 1.83089 4.47375 2.02682L7.29375 5.63807H17.1881C17.5744 4.53769 18.293 3.58452 19.2446 2.91037C20.1962 2.23622 21.3338 1.8744 22.5 1.87494ZM19.245 5.63807H23.4375C23.6861 5.63807 23.9246 5.73684 24.1004 5.91266C24.2762 6.08847 24.375 6.32693 24.375 6.57557V6.88682C24.375 7.29251 24.2434 7.68726 24 8.01182L21.6431 11.1524C22.3203 11.3111 23.0283 11.2783 23.688 11.0577C24.3476 10.8371 24.9329 10.4374 25.3784 9.90321C25.8239 9.36906 26.112 8.72153 26.2107 8.03301C26.3093 7.34449 26.2145 6.64211 25.9368 6.00438C25.6592 5.36665 25.2096 4.81871 24.6384 4.4218C24.0673 4.0249 23.3969 3.79467 22.7024 3.75686C22.0079 3.71905 21.3165 3.87514 20.7056 4.20768C20.0947 4.54023 19.5884 5.03613 19.2431 5.63994V5.63807H19.245ZM8.76 7.51307L12.5531 12.3693C12.6976 12.5659 12.7598 12.811 12.7264 13.0527C12.6931 13.2944 12.5669 13.5135 12.3745 13.6636C12.1822 13.8137 11.939 13.883 11.6964 13.8566C11.4539 13.8302 11.2312 13.7104 11.0756 13.5224L6.38063 7.51307H4.21875L13.125 19.3762L22.0312 7.51307H8.76Z" fill="white"/>
</svg>
