<svg width="30" height="30" viewBox="0 0 30 30" fill="none" xmlns="http://www.w3.org/2000/svg">
<path d="M3.75 12.1875V10.7812C3.74995 10.1661 3.88443 9.55833 4.14401 9.00063C4.40359 8.44293 4.78199 7.94875 5.2527 7.55271C5.72341 7.15668 6.27503 6.86837 6.8689 6.708C7.46278 6.54762 8.08455 6.51907 8.69063 6.62433C9.08511 5.25576 9.91388 4.05256 11.052 3.19619C12.19 2.33982 13.5757 1.87671 15 1.87671C16.4243 1.87671 17.81 2.33982 18.948 3.19619C20.0861 4.05256 20.9149 5.25576 21.3094 6.62433C21.9155 6.51907 22.5372 6.54762 23.1311 6.708C23.725 6.86837 24.2766 7.15668 24.7473 7.55271C25.218 7.94875 25.5964 8.44293 25.856 9.00063C26.1156 9.55833 26.25 10.1661 26.25 10.7812V12.1875C26.2504 15.0091 25.1905 17.7279 23.2803 19.8048C21.3702 21.8816 18.7494 23.1648 15.9375 23.4V26.25H14.0625V23.4C11.2506 23.1648 8.62981 21.8816 6.71967 19.8048C4.80954 17.7279 3.74959 15.0091 3.75 12.1875ZM12.1613 11.2481H17.8387C17.7554 10.5051 17.8712 9.75338 18.1744 9.06999C18.4775 8.3866 18.9571 7.79618 19.5638 7.35933C19.3209 6.33138 18.7381 5.41553 17.9098 4.76011C17.0815 4.1047 16.0562 3.74811 15 3.74811C13.9438 3.74811 12.9185 4.1047 12.0902 4.76011C11.2619 5.41553 10.6791 6.33138 10.4362 7.35933C11.0432 7.79634 11.523 8.38706 11.8261 9.07082C12.1293 9.75457 12.2449 10.5067 12.1613 11.25V11.2481ZM10.0256 11.2481C10.0952 10.9394 10.0944 10.6191 10.0233 10.3108C9.95224 10.0025 9.81274 9.7141 9.61512 9.46702C9.41751 9.21994 9.16684 9.02048 8.88169 8.88341C8.59653 8.74633 8.2842 8.67516 7.96781 8.67516C7.65142 8.67516 7.33909 8.74633 7.05394 8.88341C6.76879 9.02048 6.51812 9.21994 6.32051 9.46702C6.12289 9.7141 5.98339 10.0025 5.91233 10.3108C5.84127 10.6191 5.84047 10.9394 5.91 11.2481H10.0256ZM19.9744 11.2481H24.0881C24.1577 10.9394 24.1569 10.6191 24.0858 10.3108C24.0147 10.0025 23.8752 9.7141 23.6776 9.46702C23.48 9.21994 23.2293 9.02048 22.9442 8.88341C22.659 8.74633 22.3467 8.67516 22.0303 8.67516C21.7139 8.67516 21.4016 8.74633 21.1164 8.88341C20.8313 9.02048 20.5806 9.21994 20.383 9.46702C20.1854 9.7141 20.0459 10.0025 19.9748 10.3108C19.9038 10.6191 19.903 10.9394 19.9725 11.2481H19.9744ZM15 21.5625C17.3244 21.5624 19.5659 20.6989 21.2896 19.1395C23.0133 17.58 24.0961 15.4359 24.3281 13.1231H5.67188C5.90385 15.4359 6.98674 17.58 8.7104 19.1395C10.4341 20.6989 12.6756 21.5624 15 21.5625ZM11.25 26.2518H18.75C18.9986 26.2518 19.2371 26.3506 19.4129 26.5264C19.5887 26.7022 19.6875 26.9407 19.6875 27.1893C19.6875 27.438 19.5887 27.6764 19.4129 27.8522C19.2371 28.0281 18.9986 28.1268 18.75 28.1268H11.25C11.0014 28.1268 10.7629 28.0281 10.5871 27.8522C10.4113 27.6764 10.3125 27.438 10.3125 27.1893C10.3125 26.9407 10.4113 26.7022 10.5871 26.5264C10.7629 26.3506 11.0014 26.2518 11.25 26.2518Z" fill="white"/>
</svg>
