<svg width="30" height="30" viewBox="0 0 30 30" fill="none" xmlns="http://www.w3.org/2000/svg">
<path d="M6.3938 19.2891V22.8834C7.49179 24.2299 8.87597 25.3148 10.4457 26.0593C12.0155 26.8038 13.7314 27.1892 15.4688 27.1875C19.5225 27.1875 23.0963 25.1288 25.2 22.0003V16.9622C24.48 21.69 20.3972 25.3125 15.4688 25.3125C11.3869 25.3125 7.88536 22.8281 6.3938 19.2891ZM23.4657 9.72751V8.11314C23.4629 7.75709 23.5213 7.4032 23.6382 7.06689C21.4529 4.93646 18.5207 3.74592 15.4688 3.75001C12.7377 3.74596 10.0917 4.69974 7.9913 6.44533L7.99599 6.50251L7.99692 6.52783V9.05908C8.92017 7.98067 10.0662 7.11523 11.3561 6.52238C12.6461 5.92954 14.0492 5.62339 15.4688 5.62501C18.7632 5.62501 21.6788 7.24314 23.4657 9.72751Z" fill="white"/>
<path d="M22.9687 15.4688C22.9687 17.4579 22.1786 19.3655 20.7721 20.7721C19.3655 22.1786 17.4579 22.9688 15.4687 22.9688C13.4796 22.9688 11.572 22.1786 10.1654 20.7721C8.75893 19.3655 7.96875 17.4579 7.96875 15.4688C7.96875 13.4796 8.75893 11.572 10.1654 10.1655C11.572 8.75893 13.4796 7.96875 15.4687 7.96875C17.4579 7.96875 19.3655 8.75893 20.7721 10.1655C22.1786 11.572 22.9687 13.4796 22.9687 15.4688ZM15.4687 22.0312C16.3305 22.0312 17.1839 21.8615 17.9801 21.5317C18.7763 21.2019 19.4998 20.7185 20.1091 20.1091C20.7185 19.4998 21.2019 18.7763 21.5317 17.9801C21.8615 17.1839 22.0312 16.3306 22.0312 15.4688C22.0312 14.607 21.8615 13.7536 21.5317 12.9574C21.2019 12.1612 20.7185 11.4377 20.1091 10.8284C19.4998 10.219 18.7763 9.73559 17.9801 9.40579C17.1839 9.076 16.3305 8.90625 15.4687 8.90625C13.7283 8.90625 12.0591 9.59766 10.8284 10.8284C9.59765 12.0591 8.90625 13.7283 8.90625 15.4688C8.90625 17.2092 9.59765 18.8784 10.8284 20.1091C12.0591 21.3398 13.7283 22.0312 15.4687 22.0312ZM28.1156 7.44375C28.1156 6.6 27.4312 5.91563 26.5875 5.91563C25.3687 5.91563 24.3937 6.9 24.4031 8.10938V13.3125C24.4031 14.4872 25.0837 15.5391 26.1375 16.0153V24.0938C26.1375 24.5813 26.5312 24.975 27.0187 24.975H27.2344C27.7219 24.975 28.1156 24.5813 28.1156 24.0938V7.44375ZM6.39375 5.91563C6.22467 5.91563 6.06252 5.98279 5.94297 6.10235C5.82342 6.2219 5.75625 6.38405 5.75625 6.55313V9.075C5.75625 9.2625 5.60625 9.40313 5.42812 9.40313C5.24062 9.40313 5.1 9.25313 5.1 9.075V6.58125C5.1 6.23438 4.82812 5.925 4.48125 5.91563C4.11563 5.90625 3.81563 6.19688 3.81563 6.55313V9.075C3.81563 9.2625 3.66562 9.40313 3.4875 9.40313C3.3 9.40313 3.15937 9.25313 3.15937 9.075V6.58125C3.15937 6.23438 2.8875 5.925 2.54062 5.91563C2.175 5.90625 1.875 6.19688 1.875 6.55313V10.8469C1.875 11.6925 2.28469 12.4472 2.91469 12.9178C3.47812 13.2356 3.47812 14.6906 3.47812 14.6906V24.0844C3.47812 24.5719 3.87187 24.9656 4.35938 24.9656H4.575C5.0625 24.9656 5.45625 24.5719 5.45625 24.0844V14.6906C5.45625 14.6906 5.45625 13.2928 6.01969 12.9178C6.3422 12.6773 6.60412 12.3649 6.78462 12.0054C6.96511 11.6459 7.05919 11.2492 7.05937 10.8469V6.55313C7.04988 6.38229 6.97587 6.22144 6.8523 6.10309C6.72873 5.98474 6.56484 5.91774 6.39375 5.91563Z" fill="white"/>
</svg>
