<svg width="30" height="30" viewBox="0 0 30 30" fill="none" xmlns="http://www.w3.org/2000/svg">
<path d="M10.5487 13.9598C10.8139 13.9598 11.0682 13.8544 11.2558 13.6669C11.4433 13.4794 11.5487 13.225 11.5487 12.9598C11.5487 12.6946 11.4433 12.4402 11.2558 12.2527C11.0682 12.0652 10.8139 11.9598 10.5487 11.9598C10.2835 11.9598 10.0291 12.0652 9.84157 12.2527C9.65404 12.4402 9.54868 12.6946 9.54868 12.9598C9.54868 13.225 9.65404 13.4794 9.84157 13.6669C10.0291 13.8544 10.2835 13.9598 10.5487 13.9598ZM15.5487 15.9578C15.5487 16.223 15.4433 16.4774 15.2558 16.6649C15.0682 16.8524 14.8139 16.9578 14.5487 16.9578C14.2835 16.9578 14.0291 16.8524 13.8416 16.6649C13.654 16.4774 13.5487 16.223 13.5487 15.9578C13.5487 15.6926 13.654 15.4382 13.8416 15.2507C14.0291 15.0632 14.2835 14.9578 14.5487 14.9578C14.8139 14.9578 15.0682 15.0632 15.2558 15.2507C15.4433 15.4382 15.5487 15.6926 15.5487 15.9578ZM10.5487 19.9558C10.8139 19.9558 11.0682 19.8504 11.2558 19.6629C11.4433 19.4754 11.5487 19.221 11.5487 18.9558C11.5487 18.6906 11.4433 18.4362 11.2558 18.2487C11.0682 18.0612 10.8139 17.9558 10.5487 17.9558C10.2835 17.9558 10.0291 18.0612 9.84157 18.2487C9.65404 18.4362 9.54868 18.6906 9.54868 18.9558C9.54868 19.221 9.65404 19.4754 9.84157 19.6629C10.0291 19.8504 10.2835 19.9558 10.5487 19.9558ZM6.54868 7.62979C6.54868 6.13379 7.77868 4.82579 9.36868 4.98279C14.5459 5.49569 19.3425 7.9318 22.8107 11.8098C23.8807 13.0028 23.5477 14.7738 22.3317 15.6548C20.5701 16.9317 18.8091 18.2093 17.0487 19.4878C17.0467 19.9248 17.0467 20.2088 17.0477 20.5788V21.2078C17.0478 21.4636 16.9919 21.7163 16.8838 21.9482C16.7757 22.18 16.6181 22.3854 16.4221 22.5497C16.2261 22.7141 15.9964 22.8335 15.7493 22.8995C15.5021 22.9655 15.2435 22.9765 14.9917 22.9318C14.7877 23.7578 14.0597 24.4588 13.0477 24.4588C12.3477 24.4588 11.7857 24.1238 11.4387 23.6438L10.1137 24.5998C8.62568 25.6748 6.54368 24.6118 6.54468 22.7748L6.54868 7.62979ZM9.22068 6.47579C8.61168 6.41579 8.04668 6.91879 8.04668 7.63179V8.15179C10.5571 8.25673 13.0156 8.89979 15.2559 10.0374C17.4962 11.1751 19.4659 12.7808 21.0317 14.7458L21.4507 14.4418C22.0287 14.0218 22.1027 13.2688 21.6927 12.8118C18.4753 9.21323 14.0252 6.95232 9.22168 6.47579H9.22068ZM8.04368 22.7758C8.04368 23.3888 8.73768 23.7438 9.23368 23.3858L11.3617 21.8508C11.4738 21.7701 11.606 21.722 11.7437 21.7117C11.8815 21.7014 12.0194 21.7293 12.1423 21.7924C12.2651 21.8555 12.3682 21.9513 12.4401 22.0692C12.512 22.1872 12.5499 22.3227 12.5497 22.4608C12.5497 22.7308 12.7587 22.9608 13.0467 22.9608C13.1126 22.9615 13.178 22.949 13.2391 22.9241C13.3002 22.8993 13.3557 22.8625 13.4024 22.816C13.4491 22.7694 13.4861 22.714 13.5112 22.6531C13.5364 22.5921 13.5491 22.5267 13.5487 22.4608V21.2058C13.5487 21.0069 13.6277 20.8161 13.7683 20.6755C13.909 20.5348 14.0998 20.4558 14.2987 20.4558C14.4976 20.4558 14.6884 20.5348 14.829 20.6755C14.9697 20.8161 15.0487 21.0069 15.0487 21.2058C15.0487 21.3468 15.1597 21.4568 15.2967 21.4568C15.363 21.4568 15.4266 21.4305 15.4735 21.3836C15.5203 21.3367 15.5467 21.2731 15.5467 21.2068V20.5848C15.5457 20.1148 15.5447 19.7768 15.5517 19.0958C15.5526 18.9787 15.5809 18.8634 15.6344 18.7592C15.6879 18.655 15.7651 18.5648 15.8597 18.4958C16.7617 17.8398 18.3557 16.6838 19.8157 15.6258C18.3899 13.852 16.603 12.402 14.5737 11.372C12.5443 10.342 10.3191 9.75561 8.04568 9.65179V22.7758H8.04368Z" fill="white"/>
</svg>
