<svg width="30" height="30" viewBox="0 0 30 30" fill="none" xmlns="http://www.w3.org/2000/svg">
<path d="M25.1821 4.81875C22.5074 2.14312 18.1724 2.145 15.4921 4.81687L4.81776 15.4913C3.53373 16.7769 2.8125 18.5197 2.8125 20.3367C2.8125 22.1538 3.53373 23.8965 4.81776 25.1822C6.10342 26.4662 7.84618 27.1874 9.66323 27.1874C11.4803 27.1874 13.223 26.4662 14.5087 25.1822L25.1821 14.5087C26.4662 13.2231 27.1874 11.4803 27.1874 9.66328C27.1874 7.84623 26.4662 6.10348 25.1821 4.81781V4.81875ZM16.8159 6.14437C17.75 5.21156 19.0161 4.68762 20.3362 4.68762C21.6563 4.68762 22.9224 5.21156 23.8565 6.14437C24.7888 7.07838 25.3123 8.34411 25.3123 9.66375C25.3123 10.9834 24.7888 12.2491 23.8565 13.1831L13.1831 23.8566C12.249 24.7891 10.9831 25.3128 9.66323 25.3128C8.34336 25.3128 7.07743 24.7891 6.14338 23.8566C5.21057 22.9225 4.68663 21.6563 4.68663 20.3363C4.68663 19.0162 5.21057 17.75 6.14338 16.8159L6.26339 16.6969L9.76214 20.1947C9.89769 20.3309 10.0588 20.439 10.2363 20.5128C10.4137 20.5865 10.604 20.6245 10.7962 20.6245C10.9884 20.6245 11.1787 20.5865 11.3561 20.5128C11.5336 20.439 11.6947 20.3309 11.8303 20.1947C11.9665 20.0591 12.0746 19.898 12.1484 19.7205C12.2221 19.5431 12.2601 19.3528 12.2601 19.1606C12.2601 18.9684 12.2221 18.7782 12.1484 18.6007C12.0746 18.4232 11.9665 18.2621 11.8303 18.1266L8.33151 14.6287L10.4456 12.5147L13.9481 16.0172C14.0836 16.1536 14.2448 16.2618 14.4224 16.3356C14.5999 16.4095 14.7903 16.4475 14.9826 16.4475C15.1749 16.4475 15.3653 16.4095 15.5428 16.3356C15.7204 16.2618 15.8816 16.1536 16.0171 16.0172C16.2889 15.7414 16.4413 15.3698 16.4413 14.9827C16.4413 14.5955 16.2889 14.2239 16.0171 13.9481L12.5146 10.4456L14.6287 8.33156L18.1265 11.8303C18.2621 11.9667 18.4233 12.0749 18.6008 12.1488C18.7784 12.2226 18.9688 12.2606 19.161 12.2606C19.3533 12.2606 19.5437 12.2226 19.7213 12.1488C19.8988 12.0749 20.06 11.9667 20.1956 11.8303C20.3319 11.6947 20.4402 11.5336 20.514 11.356C20.5879 11.1785 20.6259 10.9881 20.6259 10.7958C20.6259 10.6035 20.5879 10.4131 20.514 10.2356C20.4402 10.058 20.3319 9.89682 20.1956 9.76125L16.6968 6.26438L16.8159 6.14437Z" fill="white"/>
</svg>
