<svg width="30" height="30" viewBox="0 0 30 30" fill="none" xmlns="http://www.w3.org/2000/svg">
<path d="M17.5195 9.9777H18.75V11.4509H17.5195V9.9777ZM11.25 9.9777H12.4805V11.4509H11.25V9.9777ZM16.2305 12.8572H17.5195V14.2634H16.2305V12.8572ZM19.9805 12.8572H21.2695V14.2634H19.9805V12.8572ZM8.73047 12.8572H10.0195V14.2634H8.73047V12.8572ZM12.4805 12.8572H13.7695V14.2634H12.4805V12.8572ZM29.3555 13.125C29.6289 12.0536 29.5117 10.9598 29.0039 9.84377C28.4961 8.90627 27.7539 8.23662 26.7773 7.83484L25.0195 7.43305C24.9023 6.31698 24.4336 5.35716 23.6133 4.55359C22.6367 3.61609 21.5625 3.39287 20.3906 3.88395L18.5156 4.28573L18.6328 4.68752C17.3828 4.41966 16.1719 4.28573 15 4.28573C13.5938 4.28573 12.4219 4.48662 11.4844 4.88841V4.28573L9.60938 3.88395C8.59375 3.57145 7.51953 3.79466 6.38672 4.55359C5.56641 5.35716 5.09766 6.31698 4.98047 7.43305L3.39844 7.83484C2.38281 8.14734 1.60156 8.80582 1.05469 9.81029C0.507812 10.8147 0.371094 11.875 0.644531 12.9911L0.996094 15C0.332031 17.0536 0 19.1964 0 21.4286C0 22.1875 0.244141 22.8572 0.732422 23.4375C1.2207 24.0179 1.81641 24.3081 2.51953 24.3081H27.4805C28.1836 24.3081 28.7793 24.0179 29.2676 23.4375C29.7559 22.8572 30 22.1875 30 21.4286C30 19.0625 29.6289 16.9643 28.8867 15.1339L29.3555 13.125ZM2.51953 21.4286C2.51953 19.1518 2.92969 17.1429 3.75 15.4018C4.76562 12.9464 6.2793 10.9598 8.29102 9.44198C10.3027 7.92412 12.5391 7.1652 15 7.1652C17.4219 7.1652 19.6484 7.91296 21.6797 9.4085C23.7109 10.904 25.2344 12.8572 26.25 15.2679C27.0703 17.2768 27.4805 19.2857 27.4805 21.2947H2.51953V21.4286Z" fill="white"/>
</svg>
