<svg width="30" height="30" viewBox="0 0 30 30" fill="none" xmlns="http://www.w3.org/2000/svg">
<path d="M15.6435 3.31803C15.4663 3.1602 15.2373 3.073 15 3.073C14.7627 3.073 14.5337 3.1602 14.3565 3.31803C13.1694 4.372 12.2972 5.73398 11.8365 7.25311C11.3759 8.77225 11.3447 10.3893 11.7465 11.925C9.84284 10.8015 7.63716 10.2973 5.43446 10.482C5.30368 10.4928 5.17633 10.5293 5.05974 10.5895C4.94314 10.6497 4.83961 10.7324 4.75512 10.8328C4.67062 10.9332 4.60683 11.0493 4.56741 11.1745C4.528 11.2996 4.51374 11.4313 4.52546 11.562C4.71146 13.6095 5.67146 15.642 7.00196 17.217C6.4798 17.1837 5.95589 17.1887 5.43446 17.232C5.30368 17.2428 5.17633 17.2793 5.05974 17.3395C4.94314 17.3997 4.83961 17.4824 4.75512 17.5828C4.67062 17.6832 4.60683 17.7993 4.56741 17.9245C4.528 18.0496 4.51374 18.1813 4.52546 18.312C4.74106 20.6858 5.83635 22.8932 7.59623 24.5007C9.35612 26.1082 11.6534 26.9997 14.037 27H15.963C18.3463 26.9997 20.6434 26.1085 22.4032 24.5013C24.1631 22.8941 25.2585 20.687 25.4745 18.3135C25.4864 18.1827 25.4723 18.0508 25.433 17.9255C25.3937 17.8002 25.3299 17.6839 25.2454 17.5833C25.1609 17.4828 25.0573 17.3999 24.9406 17.3396C24.8239 17.2794 24.6964 17.2428 24.5655 17.232C24.044 17.1887 23.5201 17.1837 22.998 17.217C24.3285 15.642 25.2885 13.6095 25.4745 11.562C25.486 11.4314 25.4716 11.2997 25.4321 11.1747C25.3926 11.0496 25.3288 10.9335 25.2443 10.8332C25.1599 10.7328 25.0564 10.6502 24.9399 10.5899C24.8234 10.5296 24.6962 10.493 24.5655 10.482C22.3628 10.2973 20.1571 10.8015 18.2535 11.925C18.6552 10.3893 18.624 8.77225 18.1634 7.25311C17.7027 5.73398 16.8305 4.372 15.6435 3.31803V3.31803ZM15 21.642C13.7172 19.8623 11.9193 18.5188 9.84896 17.793C9.83202 17.7793 9.8145 17.7663 9.79646 17.754C7.99646 16.5285 6.47246 14.25 6.08696 11.949C8.34417 11.8909 10.5437 12.6662 12.2655 14.127C13.4055 15.0915 13.7175 15.972 13.9995 16.764C14.1015 17.049 14.199 17.3235 14.3295 17.5845C14.3918 17.7089 14.4876 17.8135 14.606 17.8867C14.7244 17.9598 14.8608 17.9985 15 17.9985C15.1391 17.9985 15.2755 17.9598 15.394 17.8867C15.5124 17.8135 15.6081 17.7089 15.6705 17.5845C15.8025 17.3235 15.9 17.049 16.0005 16.7625C16.2825 15.9735 16.596 15.0915 17.7345 14.127C19.4564 12.6653 21.6565 11.8894 23.9145 11.9475C23.5275 14.25 22.005 16.5285 20.2035 17.754C20.1854 17.7662 20.1679 17.7792 20.151 17.793C18.0806 18.5187 16.2827 19.8622 15 21.642V21.642ZM14.037 25.5C12.1182 25.4997 10.2627 24.8142 8.80462 23.567C7.34652 22.3198 6.38171 20.593 6.08396 18.6975C7.75887 18.655 9.41357 19.0708 10.8694 19.9001C12.3252 20.7294 13.5268 21.9406 14.3445 23.403C14.4094 23.5199 14.5045 23.6173 14.6197 23.685C14.735 23.7528 14.8663 23.7886 15 23.7886C15.1337 23.7886 15.265 23.7528 15.3802 23.685C15.4955 23.6173 15.5905 23.5199 15.6555 23.403C16.4731 21.9406 17.6747 20.7294 19.1305 19.9001C20.5863 19.0708 22.2411 18.655 23.916 18.6975C23.6182 20.593 22.6534 22.3198 21.1953 23.567C19.7372 24.8142 17.8817 25.4997 15.963 25.5H14.037ZM15 14.724C13.6979 13.3955 12.9685 11.6095 12.9685 9.74928C12.9685 7.88907 13.6979 6.10302 15 4.77453C16.3021 6.10302 17.0314 7.88907 17.0314 9.74928C17.0314 11.6095 16.3021 13.3955 15 14.724V14.724Z" fill="white"/>
</svg>
