<svg width="21" height="21" viewBox="0 0 21 21" fill="none" xmlns="http://www.w3.org/2000/svg">
<path fill-rule="evenodd" clip-rule="evenodd" d="M18.5 16.5V4.5C18.5 3.96957 18.2893 3.46086 17.9142 3.08579C17.5391 2.71071 17.0304 2.5 16.5 2.5H4.5C3.96957 2.5 3.46086 2.71071 3.08579 3.08579C2.71071 3.46086 2.5 3.96957 2.5 4.5V16.5C2.5 17.0304 2.71071 17.5391 3.08579 17.9142C3.46086 18.2893 3.96957 18.5 4.5 18.5H16.5C17.0304 18.5 17.5391 18.2893 17.9142 17.9142C18.2893 17.5391 18.5 17.0304 18.5 16.5Z" stroke="white" stroke-linecap="round" stroke-linejoin="round"/>
<path d="M2.5 14.5H12.5C13.0304 14.5 13.5391 14.2893 13.9142 13.9142C14.2893 13.5391 14.5 13.0304 14.5 12.5V2.5" stroke="white" stroke-linecap="round" stroke-linejoin="round"/>
<path d="M2.5 10.5H9.5C9.76522 10.5 10.0196 10.3946 10.2071 10.2071C10.3946 10.0196 10.5 9.76522 10.5 9.5V2.5" stroke="white" stroke-linecap="round" stroke-linejoin="round"/>
</svg>
