<svg width="30" height="30" viewBox="0 0 30 30" fill="none" xmlns="http://www.w3.org/2000/svg">
<path d="M15 26.25C21.2132 26.25 26.25 21.2132 26.25 15C26.25 8.7868 21.2132 3.75 15 3.75C8.7868 3.75 3.75 8.7868 3.75 15C3.75 21.2132 8.7868 26.25 15 26.25Z" stroke="white" stroke-width="2" stroke-linecap="round" stroke-linejoin="round"/>
<path d="M11.25 12.5H11.2625M18.75 12.5H18.7625M11.875 18.75C12.2823 19.1657 12.7686 19.496 13.3052 19.7215C13.8418 19.947 14.418 20.0631 15 20.0631C15.582 20.0631 16.1582 19.947 16.6948 19.7215C17.2314 19.496 17.7177 19.1657 18.125 18.75M15 3.75C14.337 3.75 13.7011 4.01339 13.2322 4.48223C12.7634 4.95107 12.5 5.58696 12.5 6.25C12.5 6.91304 12.7634 7.54893 13.2322 8.01777C13.7011 8.48661 14.337 8.75 15 8.75" stroke="white" stroke-width="2" stroke-linecap="round" stroke-linejoin="round"/>
</svg>
